<svg width="120" height="30" viewBox="0 0 120 30" fill="none" xmlns="http://www.w3.org/2000/svg">
  <path d="M12 5C8.13401 5 5 8.13401 5 12C5 15.866 8.13401 19 12 19C15.866 19 19 15.866 19 12C19 8.13401 15.866 5 12 5Z" fill="url(#paint0_linear)" />
  <path d="M12.5 9C13.3284 9 14 8.32843 14 7.5C14 6.67157 13.3284 6 12.5 6C11.6716 6 11 6.67157 11 7.5C11 8.32843 11.6716 9 12.5 9Z" fill="white" />
  <path d="M9.5 11C10.3284 11 11 10.3284 11 9.5C11 8.67157 10.3284 8 9.5 8C8.67157 8 8 8.67157 8 9.5C8 10.3284 8.67157 11 9.5 11Z" fill="white" />
  <path d="M14.5 11C15.3284 11 16 10.3284 16 9.5C16 8.67157 15.3284 8 14.5 8C13.6716 8 13 8.67157 13 9.5C13 10.3284 13.6716 11 14.5 11Z" fill="white" />
  <path d="M12 16C13.6569 16 15 14.6569 15 13C15 11.3431 13.6569 10 12 10C10.3431 10 9 11.3431 9 13C9 14.6569 10.3431 16 12 16Z" fill="white" />
  <path d="M30.568 9.232H26.96V7.6H36.08V9.232H32.472V19H30.568V9.232Z" fill="#6EC1E4" />
  <path d="M37.4258 7.6H39.3298V19H37.4258V7.6Z" fill="#6EC1E4" />
  <path d="M41.5935 13.288C41.5935 10.76 43.3855 9.064 45.8095 9.064C48.2335 9.064 50.0255 10.76 50.0255 13.288C50.0255 15.816 48.2335 17.512 45.8095 17.512C43.3855 17.512 41.5935 15.816 41.5935 13.288ZM48.1615 13.288C48.1615 11.624 47.1855 10.648 45.8095 10.648C44.4335 10.648 43.4575 11.624 43.4575 13.288C43.4575 14.952 44.4335 15.928 45.8095 15.928C47.1855 15.928 48.1615 14.952 48.1615 13.288Z" fill="#6EC1E4" />
  <path d="M57.8136 9.064C59.9656 9.064 61.5576 10.552 61.5576 12.776C61.5576 15 59.9656 16.488 57.8136 16.488H55.7176V19H53.8136V9.064H57.8136ZM57.7576 14.904C58.8936 14.904 59.6936 14.104 59.6936 12.776C59.6936 11.448 58.8936 10.648 57.7576 10.648H55.7176V14.904H57.7576Z" fill="#B9A9FF" />
  <path d="M69.1553 19L67.0993 15.592H65.3073V19H63.4033V9.064H67.4033C69.5553 9.064 71.1473 10.552 71.1473 12.328C71.1473 13.768 70.3313 14.856 69.1073 15.368L71.4673 19H69.1553ZM67.3473 14.008C68.4833 14.008 69.2833 13.32 69.2833 12.328C69.2833 11.336 68.4833 10.648 67.3473 10.648H65.3073V14.008H67.3473Z" fill="#B9A9FF" />
  <path d="M72.8781 9.064H74.7821V17.416H80.0301V19H72.8781V9.064Z" fill="#B9A9FF" />
  <path d="M87.2508 19.168C84.4188 19.168 82.4028 17.272 82.4028 14.032C82.4028 10.792 84.4188 8.896 87.2508 8.896C89.0988 8.896 90.5708 9.76 91.3388 11.176L89.8028 12.088C89.2988 11.176 88.3948 10.48 87.2508 10.48C85.5308 10.48 84.2668 11.848 84.2668 14.032C84.2668 16.216 85.5308 17.584 87.2508 17.584C88.3948 17.584 89.2988 16.888 89.8028 15.976L91.3388 16.888C90.5708 18.304 89.0988 19.168 87.2508 19.168Z" fill="#B9A9FF" />
  <path d="M92.8167 9.064H100.025V10.648H94.7207V13.064H99.3647V14.648H94.7207V17.416H100.025V19H92.8167V9.064Z" fill="#B9A9FF" />
  <path d="M107.741 19.168C104.909 19.168 102.893 17.272 102.893 14.032C102.893 10.792 104.909 8.896 107.741 8.896C109.589 8.896 111.061 9.76 111.829 11.176L110.293 12.088C109.789 11.176 108.885 10.48 107.741 10.48C106.021 10.48 104.757 11.848 104.757 14.032C104.757 16.216 106.021 17.584 107.741 17.584C108.885 17.584 109.789 16.888 110.293 15.976L111.829 16.888C111.061 18.304 109.589 19.168 107.741 19.168Z" fill="#B9A9FF" />
  <path d="M113.307 9.064H115.211V17.416H120.459V19H113.307V9.064Z" fill="#B9A9FF" />
  <defs>
    <linearGradient id="paint0_linear" x1="5" y1="12" x2="19" y2="12" gradientUnits="userSpaceOnUse">
      <stop stop-color="#6EC1E4" />
      <stop offset="1" stop-color="#B9A9FF" />
    </linearGradient>
  </defs>
</svg> 